<svg height="512" viewBox="0 0 64 64" width="512" xmlns="http://www.w3.org/2000/svg"><g id="Admin-Router-Network-Technology-Configuration"><path d="m15 21h2v2h-2z"/><path d="m21 21h2v2h-2z"/><path d="m61 48h-4.03a4.924 4.924 0 0 0 1.03-3 4.994 4.994 0 0 0 -2.03-4 4.956 4.956 0 0 0 0-8 4.985 4.985 0 0 0 -2.97-9h-12a4.985 4.985 0 0 0 -2.97 9 4.956 4.956 0 0 0 0 8 4.994 4.994 0 0 0 -2.03 4 4.924 4.924 0 0 0 1.03 3h-3.03v-7.13a7.023 7.023 0 0 0 -2.42-5.29l.02-.09a3 3 0 0 0 -2.96-3.49h-4.22l-1.42-.64v-1.45a8 8 0 0 0 3.75-4.94c.08 0 .17.03.25.03a2.992 2.992 0 0 0 .38-5.96l1.33-1.33a1.033 1.033 0 0 0 .29-.71v-3a5 5 0 0 0 -5-5h-16a1 1 0 0 0 -.89 1.45l1.77 3.55-.77 1.55a1 1 0 0 0 .18 1.16l2.33 2.33a2.992 2.992 0 0 0 .38 5.96c.09 0 .17-.03.25-.03a8.077 8.077 0 0 0 2.09 3.69 7.846 7.846 0 0 0 1.66 1.23v1.47l-1.42.64h-4.22a3 3 0 0 0 -2.96 3.49l.02.09a7.023 7.023 0 0 0 -2.42 5.29v7.13h-1a1 1 0 0 0 -1 1v4a1 1 0 0 0 1 1h2v7a1 1 0 0 0 1 1h52a1 1 0 0 0 1-1v-7h2a1 1 0 0 0 1-1v-4a1 1 0 0 0 -1-1zm-23-19a3.009 3.009 0 0 1 3-3h12a3 3 0 0 1 0 6h-12a3.009 3.009 0 0 1 -3-3zm0 8a3.009 3.009 0 0 1 3-3h12a3 3 0 0 1 0 6h-12a3.009 3.009 0 0 1 -3-3zm3 5h12a3 3 0 0 1 0 6h-12a3 3 0 0 1 0-6zm-11 5v-1.92l1.16-6.98a4.99 4.99 0 0 1 .84 2.77v7.13h-2.18a3 3 0 0 0 .18-1zm-2-25a1 1 0 0 1 -1 1v-2a1 1 0 0 1 1 1zm-17 1a1 1 0 0 1 0-2zm-.78-7.2.67-1.35a.956.956 0 0 0 0-.9l-1.27-2.55h14.38a3.009 3.009 0 0 1 3 3v2.59l-1.41 1.41h-.15a1 1 0 0 1 -.95-.68l-.54-1.64a.975.975 0 0 0 -.65-.63.789.789 0 0 0 -.3-.05 1.029 1.029 0 0 0 -.6.2l-1.87 1.4a7.042 7.042 0 0 1 -4.2 1.4h-3.92zm4.54 11.44a5.994 5.994 0 0 1 -1.73-3.66 5.49 5.49 0 0 1 -.03-.58v-3h3.33a9.032 9.032 0 0 0 5.4-1.8l.76-.57.11.32a2.975 2.975 0 0 0 2.4 2.01v3.04a4.354 4.354 0 0 1 -.04.61 5.984 5.984 0 0 1 -8.54 4.8 5.568 5.568 0 0 1 -1.66-1.17zm6.24 3.5v1.26h-4v-1.26a7.822 7.822 0 0 0 4 0zm-12.4 3.61a1 1 0 0 1 .76-.35h19.28a1 1 0 0 1 .76.35 1.014 1.014 0 0 1 .23.82l-1.48 8.83h-18.3l-1.48-8.83a1.014 1.014 0 0 1 .23-.82zm19.4 11.65v1a1 1 0 0 1 -1 1h-16a1 1 0 0 1 -1-1v-1zm-22-5.13a4.99 4.99 0 0 1 .84-2.77l1.16 6.98v1.92a3 3 0 0 0 .18 1h-2.18zm51 19.13h-50v-6h50zm3-8h-56v-2h56z"/><path d="m19 42a3 3 0 1 0 -3-3 3 3 0 0 0 3 3zm0-4a1 1 0 1 1 -1 1 1 1 0 0 1 1-1z"/><path d="m52 36h2v2h-2z"/><path d="m48 36h2v2h-2z"/><path d="m40 36h2v2h-2z"/><path d="m52 28h2v2h-2z"/><path d="m48 28h2v2h-2z"/><path d="m40 28h2v2h-2z"/><path d="m52 44h2v2h-2z"/><path d="m48 44h2v2h-2z"/><path d="m40 44h2v2h-2z"/></g></svg>